<svg width="36" height="36" viewBox="0 0 36 36" fill="none" xmlns="http://www.w3.org/2000/svg" xmlns:xlink="http://www.w3.org/1999/xlink">
 <defs>
  <clipPath id="a">
   <path d="m139.21 139.21h472.79v473.58h-472.79z"/>
  </clipPath>
 </defs>
 <rect width="752" height="752" fill="url(#pattern0)"/>
 <g clip-path="url(#a)">
  <path d="m375.08 139.84c130.21 0 235.93 105.84 235.93 236.21s-105.71 236.21-235.93 236.21c-130.21 0-235.92-105.84-235.92-236.21s105.71-236.21 235.92-236.21zm0 20.789c118.75 0 215.17 96.523 215.17 215.42s-96.414 215.43-215.17 215.43c-118.75 0-215.16-96.531-215.16-215.43s96.414-215.42 215.16-215.42z" fill-rule="evenodd"/>
 </g>
 <path d="m420.86 310.22-120.39 70.078 120.39 70.074m-153.66-70.074 153.66-89.449v178.89z" fill-rule="evenodd"/>
 <path d="m467.83 301c0 21.992-17.828 39.82-39.82 39.82-21.992 0-39.82-17.828-39.82-39.82 0-21.992 17.828-39.82 39.82-39.82 21.992 0 39.82 17.828 39.82 39.82" fill-rule="evenodd"/>
 <path d="m326.77 379.27c0 21.992-17.828 39.82-39.82 39.82-21.992 0-39.82-17.828-39.82-39.82 0-21.992 17.828-39.82 39.82-39.82 21.992 0 39.82 17.828 39.82 39.82" fill-rule="evenodd"/>
 <path d="m467.83 451.1c0 21.992-17.828 39.82-39.82 39.82-21.992 0-39.82-17.828-39.82-39.82 0-21.992 17.828-39.82 39.82-39.82 21.992 0 39.82 17.828 39.82 39.82" fill-rule="evenodd"/>
</svg>
